<mxfile host="app.diagrams.net" modified="2024-03-17T17:44:58.267Z" agent="Mozilla/5.0 (Macintosh; Intel Mac OS X 10.15; rv:123.0) Gecko/20100101 Firefox/123.0" etag="l1bGg8uEM0xNQ3gDedb_" version="24.0.7" type="github">
  <diagram id="R2lEEEUBdFMjLlhIrx00" name="Page-1">
    <mxGraphModel dx="1242" dy="735" grid="1" gridSize="10" guides="1" tooltips="1" connect="1" arrows="1" fold="1" page="1" pageScale="1" pageWidth="850" pageHeight="1100" math="0" shadow="0" extFonts="Permanent Marker^https://fonts.googleapis.com/css?family=Permanent+Marker">
      <root>
        <mxCell id="0" />
        <mxCell id="1" parent="0" />
        <mxCell id="uYTpu8ILMTm6otxVwH1r-1" value="User" style="swimlane;childLayout=stackLayout;horizontal=1;startSize=50;horizontalStack=0;rounded=1;fontSize=14;fontStyle=0;strokeWidth=2;resizeParent=0;resizeLast=1;shadow=0;dashed=0;align=center;arcSize=4;whiteSpace=wrap;html=1;" vertex="1" parent="1">
          <mxGeometry x="80" y="200" width="170" height="140" as="geometry" />
        </mxCell>
        <mxCell id="uYTpu8ILMTm6otxVwH1r-2" value="+ userId (PK)&lt;br&gt;+ name&lt;br&gt;&lt;div&gt;+ email&lt;/div&gt;&lt;div&gt;+ createdAt&lt;br&gt;&lt;/div&gt;&lt;div&gt;+ lastLogin&lt;br&gt;&lt;/div&gt;&lt;div&gt;&lt;br&gt;&lt;/div&gt;" style="align=left;strokeColor=none;fillColor=none;spacingLeft=4;fontSize=12;verticalAlign=top;resizable=0;rotatable=0;part=1;html=1;" vertex="1" parent="uYTpu8ILMTm6otxVwH1r-1">
          <mxGeometry y="50" width="170" height="90" as="geometry" />
        </mxCell>
        <mxCell id="uYTpu8ILMTm6otxVwH1r-3" value="Paste" style="swimlane;childLayout=stackLayout;horizontal=1;startSize=50;horizontalStack=0;rounded=1;fontSize=14;fontStyle=0;strokeWidth=2;resizeParent=0;resizeLast=1;shadow=0;dashed=0;align=center;arcSize=4;whiteSpace=wrap;html=1;" vertex="1" parent="1">
          <mxGeometry x="470" y="180" width="180" height="180" as="geometry" />
        </mxCell>
        <mxCell id="uYTpu8ILMTm6otxVwH1r-4" value="+ pasteId (PK)&lt;br&gt;+ userId (FK)&lt;br&gt;&lt;div&gt;+ hashValue&lt;br&gt;&lt;/div&gt;&lt;div&gt;+ customAlias&lt;br&gt;&lt;/div&gt;&lt;div&gt;+ contentHash&lt;br&gt;&lt;/div&gt;&lt;div&gt;+ contentPath&lt;/div&gt;&lt;div&gt;+ createdAt&lt;/div&gt;&lt;div&gt;+ expiryDate&lt;br&gt;&lt;/div&gt;" style="align=left;strokeColor=none;fillColor=none;spacingLeft=4;fontSize=12;verticalAlign=top;resizable=0;rotatable=0;part=1;html=1;" vertex="1" parent="uYTpu8ILMTm6otxVwH1r-3">
          <mxGeometry y="50" width="180" height="130" as="geometry" />
        </mxCell>
        <mxCell id="uYTpu8ILMTm6otxVwH1r-5" value="" style="endArrow=classic;html=1;rounded=0;entryX=-0.011;entryY=0.192;entryDx=0;entryDy=0;entryPerimeter=0;" edge="1" parent="1" target="uYTpu8ILMTm6otxVwH1r-4">
          <mxGeometry width="50" height="50" relative="1" as="geometry">
            <mxPoint x="250" y="230" as="sourcePoint" />
            <mxPoint x="350" y="230" as="targetPoint" />
            <Array as="points">
              <mxPoint x="360" y="230" />
            </Array>
          </mxGeometry>
        </mxCell>
      </root>
    </mxGraphModel>
  </diagram>
</mxfile>
